<svg width="48" height="48" viewBox="0 0 48 48" fill="none" xmlns="http://www.w3.org/2000/svg">
<g clip-path="url(#clip0)">
<path fill-rule="evenodd" clip-rule="evenodd" d="M9.21493 25.1126C9.01722 25.9188 8.60343 26.6829 7.97357 27.3128C6.1375 29.1489 3.16064 29.1489 1.32456 27.3128C-0.511508 25.4767 -0.511508 22.4999 1.32456 20.6638C2.05775 19.9306 2.97285 19.4902 3.92458 19.3426L3.93422 19.3329C5.54182 18.9724 7.45665 17.8567 9.15638 16.1569C10.8561 14.4572 11.9719 12.5424 12.3324 10.9348L12.3424 10.9248C12.49 9.97305 12.9304 9.05798 13.6636 8.3248C15.4997 6.48873 18.4765 6.48873 20.3126 8.3248C22.1487 10.1609 22.1487 13.1377 20.3126 14.9738C19.6827 15.6037 18.9186 16.0175 18.1123 16.2152L18.0965 16.231C16.4147 16.4843 14.3216 17.6402 12.4809 19.481C10.6401 21.3217 9.48421 23.4148 9.23086 25.0966L9.21493 25.1126Z" fill="white"/>
<path fill-rule="evenodd" clip-rule="evenodd" d="M35.5777 25.1125C35.38 25.9188 34.9662 26.6829 34.3363 27.3128C32.5002 29.1489 29.5234 29.1489 27.6873 27.3128C25.8512 25.4767 25.8512 22.4999 27.6873 20.6638C28.4205 19.9306 29.3356 19.4902 30.2873 19.3426L30.297 19.3329C31.9046 18.9724 33.8194 17.8567 35.5191 16.1569C37.2189 14.4572 38.3347 12.5423 38.6951 10.9347L38.7052 10.9247C38.8528 9.97299 39.2932 9.05794 40.0264 8.32478C41.8625 6.48871 44.8393 6.48871 46.6754 8.32478C48.5115 10.1609 48.5115 13.1377 46.6754 14.9738C46.0455 15.6037 45.2813 16.0175 44.475 16.2152L44.4593 16.2309C42.7774 16.4843 40.6844 17.6402 38.8436 19.4809C37.0029 21.3217 35.847 23.4147 35.5936 25.0966L35.5777 25.1125Z" fill="white" fill-opacity="0.6"/>
<path fill-rule="evenodd" clip-rule="evenodd" d="M20.3126 39.6256C18.4766 41.4616 15.4997 41.4616 13.6636 39.6256C13.0337 38.9956 12.6198 38.2313 12.4222 37.4249L12.4064 37.4091C12.1529 35.7273 10.9971 33.6344 9.15639 31.7937C7.3157 29.953 5.22277 28.7971 3.54093 28.5437L3.52518 28.528C2.71877 28.3303 1.95451 27.9165 1.32454 27.2865C-0.511528 25.4504 -0.511527 22.4736 1.32454 20.6375C3.16062 18.8014 6.13748 18.8014 7.97355 20.6375C8.70665 21.3706 9.14703 22.2855 9.29472 23.2371L9.30493 23.2473C9.66535 24.855 10.7811 26.7699 12.4809 28.4697C14.1807 30.1695 16.0956 31.2852 17.7032 31.6457L17.713 31.6554C18.6646 31.8031 19.5795 32.2435 20.3126 32.9766C22.1487 34.8126 22.1487 37.7895 20.3126 39.6256Z" fill="white"/>
<path fill-rule="evenodd" clip-rule="evenodd" d="M46.6754 39.6256C44.8394 41.4617 41.8625 41.4617 40.0264 39.6256C39.3965 38.9956 38.9827 38.2314 38.785 37.425L38.7691 37.4092C38.5157 35.7273 37.3598 33.6344 35.5192 31.7937C33.6785 29.953 31.5855 28.7971 29.9037 28.5437L29.8885 28.5285C29.0818 28.3309 28.3172 27.917 27.687 27.2869C25.8509 25.4508 25.8509 22.4739 27.687 20.6379C29.5231 18.8018 32.4999 18.8018 34.336 20.6379C35.0689 21.3707 35.5092 22.2854 35.657 23.2367L35.6677 23.2474C36.0281 24.855 37.1439 26.7699 38.8437 28.4697C40.5435 30.1695 42.4584 31.2852 44.066 31.6457L44.0757 31.6554C45.0273 31.8031 45.9423 32.2435 46.6754 32.9766C48.5115 34.8126 48.5115 37.7895 46.6754 39.6256Z" fill="white" fill-opacity="0.6"/>
<path fill-rule="evenodd" clip-rule="evenodd" d="M33.9515 40.1373C32.1155 41.9734 29.1386 41.9734 27.3025 40.1373C26.6726 39.5074 26.2588 38.7432 26.0611 37.9368L26.0452 37.9209C25.7917 36.2391 24.6359 34.1462 22.7952 32.3055C20.9546 30.4648 18.8616 29.309 17.1798 29.0555L17.1644 29.0401C16.3577 28.8425 15.5933 28.4286 14.9631 27.7985C13.1271 25.9624 13.1271 22.9855 14.9631 21.1495C16.7992 19.3134 19.7761 19.3134 21.6121 21.1495C22.3451 21.8824 22.7855 22.7972 22.9332 23.7486L22.9438 23.7592C23.3044 25.3667 24.4201 27.2813 26.1197 28.9809C27.8193 30.6805 29.734 31.7963 31.3415 32.1568L31.3518 32.1672C32.3034 32.3148 33.2184 32.7552 33.9515 33.4883C35.7876 35.3244 35.7876 38.3013 33.9515 40.1373Z" fill="#ED6A5A"/>
</g>
<defs>
<clipPath id="clip0">
<rect width="48" height="48" fill="white"/>
</clipPath>
</defs>
</svg>
