<svg width="511" height="378" viewBox="0 0 511 378" fill="none" xmlns="http://www.w3.org/2000/svg">
<ellipse cx="324" cy="186" rx="46" ry="46" transform="rotate(90 324 186)" fill="#64A6A6" fill-opacity="0.63"/>
<path fill-rule="evenodd" clip-rule="evenodd" d="M110.185 197.599C108.243 205.521 104.177 213.029 97.9886 219.218C79.9494 237.257 50.7021 237.257 32.6629 219.218C14.6237 201.179 14.6237 171.931 32.6629 153.892C39.866 146.689 48.8561 142.362 58.2061 140.911L58.3064 140.811C74.0999 137.269 92.9109 126.307 109.609 109.609C126.307 92.9105 137.269 74.0995 140.812 58.306L140.912 58.206C142.362 48.856 146.689 39.8659 153.892 32.6628C171.931 14.6236 201.179 14.6236 219.218 32.6628C237.257 50.702 237.257 79.9493 219.218 97.9885C213.029 104.177 205.521 108.243 197.599 110.185L197.443 110.341C180.919 112.831 160.356 124.187 142.272 142.272C124.187 160.356 112.831 180.919 110.341 197.443L110.185 197.599Z" fill="#315A5E"/>
<path fill-rule="evenodd" clip-rule="evenodd" d="M478.229 32.6628C496.268 50.702 496.268 79.9493 478.229 97.9885C472.04 104.177 464.532 108.243 456.61 110.185L456.454 110.341C439.93 112.831 419.367 124.187 401.283 142.272C383.198 160.356 371.842 180.919 369.352 197.443L369.196 197.599C367.254 205.521 363.189 213.029 357 219.218C338.961 237.257 309.713 237.257 291.674 219.218C273.635 201.179 273.635 171.931 291.674 153.892C298.877 146.689 307.867 142.362 317.217 140.912L317.317 140.811C333.111 137.269 351.922 126.307 368.62 109.609C385.318 92.9105 396.28 74.0995 399.823 58.3059L399.923 58.206C401.373 48.856 405.7 39.8659 412.903 32.6628C430.942 14.6236 460.19 14.6236 478.229 32.6628Z" fill="#315A5E" fill-opacity="0.5"/>
<path fill-rule="evenodd" clip-rule="evenodd" d="M219.218 340.193C201.179 358.232 171.931 358.232 153.892 340.193C147.703 334.004 143.638 326.496 141.696 318.574L141.54 318.418C139.05 301.894 127.693 281.331 109.609 263.247C91.5245 245.162 70.9616 233.806 54.4378 231.316L54.2818 231.16C46.3597 229.218 38.8517 225.153 32.6628 218.964C14.6236 200.925 14.6236 171.677 32.6628 153.638C50.702 135.599 79.9493 135.599 97.9885 153.638C105.192 160.841 109.518 169.831 110.969 179.181L111.069 179.281C114.612 195.075 125.574 213.886 142.272 230.584C158.97 247.282 177.781 258.244 193.575 261.787L193.675 261.887C203.025 263.337 212.015 267.664 219.218 274.867C237.257 292.906 237.257 322.154 219.218 340.193Z" fill="#315A5E"/>
<path fill-rule="evenodd" clip-rule="evenodd" d="M478.229 340.193C460.19 358.232 430.942 358.232 412.903 340.193C406.715 334.004 402.649 326.496 400.707 318.574L400.55 318.418C398.06 301.894 386.704 281.331 368.62 263.247C350.535 245.163 329.973 233.806 313.449 231.317L313.293 231.16C305.371 229.218 297.863 225.152 291.674 218.964C273.635 200.924 273.635 171.677 291.674 153.638C309.713 135.599 338.96 135.599 357 153.638C364.203 160.841 368.529 169.831 369.98 179.181L370.08 179.281C373.623 195.075 384.585 213.886 401.283 230.584C417.981 247.283 436.792 258.244 452.586 261.787L452.686 261.887C462.036 263.337 471.026 267.664 478.229 274.867C496.268 292.906 496.268 322.154 478.229 340.193Z" fill="#315A5E"/>
<path fill-rule="evenodd" clip-rule="evenodd" d="M353.218 345.218C335.179 363.257 305.931 363.257 287.892 345.218C281.703 339.029 277.638 331.521 275.695 323.599L275.539 323.443C273.049 306.919 261.693 286.356 243.609 268.272C225.524 250.187 204.962 238.831 188.438 236.341L188.282 236.185C180.36 234.243 172.852 230.177 166.663 223.989C148.624 205.949 148.624 176.702 166.663 158.663C184.702 140.624 213.949 140.624 231.988 158.663C239.191 165.866 243.518 174.856 244.969 184.206L245.069 184.306C248.612 200.1 259.573 218.911 276.272 235.609C292.97 252.307 311.781 263.269 327.575 266.812L327.675 266.912C337.025 268.362 346.015 272.689 353.218 279.892C371.257 297.931 371.257 327.179 353.218 345.218Z" fill="#ED6A5A"/>
</svg>
